<?xml version="1.0" encoding="utf-8"?>
<!DOCTYPE svg PUBLIC "-//W3C//DTD SVG 1.1//EN" "http://www.w3.org/Graphics/SVG/1.1/DTD/svg11.dtd">
<svg xmlns="http://www.w3.org/2000/svg" xmlns:xlink="http://www.w3.org/1999/xlink" version="1.1" baseProfile="full" width="100" height="100" viewBox="0 0 100.00 100.00" enable-background="new 0 0 100.00 100.00" xml:space="preserve">
	<rect x="0" y="1.52588e-005" fill="#9B242D" fill-opacity="1" stroke-width="0.2" stroke-linejoin="round" width="100" height="100"/>
	<g>
		<path fill="#FFFFFF" fill-opacity="1" stroke-width="0.2" stroke-linejoin="round" d="M 30.6875,87.6244L 25.3541,87.6244L 25.3541,78.2911L 15.6875,78.2911L 15.6875,87.6244L 10.3541,87.6244L 10.3541,64.2911L 15.6875,64.2911L 15.6875,73.6244L 25.3541,73.6244L 25.3541,64.2911L 30.6875,64.2911L 30.6875,87.6244 Z "/>
		<path fill="#FFFFFF" fill-opacity="1" stroke-width="0.2" stroke-linejoin="round" d="M 36.0208,87.6244L 36.0208,64.2911L 44.552,64.2911C 47.1666,64.2911 49.1762,64.7668 50.5807,65.7181C 51.9852,66.6696 52.6875,68.0098 52.6875,69.739C 52.6875,70.9925 52.2604,72.0888 51.4062,73.028C 50.552,73.9673 49.46,74.6209 48.1302,74.989L 48.1302,75.0567C 49.8177,75.2616 51.1658,75.8753 52.1744,76.8978C 53.1831,77.9204 53.6875,79.1661 53.6875,80.6348C 53.6875,82.7806 52.9166,84.4821 51.375,85.739C 49.8333,86.9959 47.7274,87.6244 45.0573,87.6244L 36.0208,87.6244 Z M 41.3541,68.2911L 41.3541,73.6244L 43.6093,73.6244C 44.6684,73.6244 45.5017,73.3709 46.1093,72.864C 46.717,72.3571 47.0208,71.6591 47.0208,70.7702C 47.0208,69.1175 45.7725,68.2911 43.276,68.2911L 41.3541,68.2911 Z M 41.3541,77.6244L 41.3541,83.6244L 44.1718,83.6244C 45.3732,83.6244 46.3151,83.3492 46.9974,82.7989C 47.6797,82.2485 48.0208,81.4977 48.0208,80.5463C 48.0208,79.6366 47.6857,78.9221 47.0156,78.403C 46.3454,77.884 45.4079,77.6244 44.2031,77.6244L 41.3541,77.6244 Z "/>
		<path fill="#FFFFFF" fill-opacity="1" stroke-width="0.2" stroke-linejoin="round" d="M 76.3541,77.4786C 76.3541,84.4647 73.0833,87.9577 66.5416,87.9577C 60.1944,87.9577 57.0208,84.5463 57.0208,77.7234L 57.0208,64.2911L 62.3541,64.2911L 62.3541,77.6869C 62.3541,81.423 63.8125,83.2911 66.7291,83.2911C 69.5902,83.2911 71.0208,81.4872 71.0208,77.8796L 71.0208,64.2911L 76.3541,64.2911L 76.3541,77.4786 Z "/>
	</g>
</svg>
